<svg version="1.1" width="644" height="52" xmlns="http://www.w3.org/2000/svg"><rect x="0" y="0" width="644" height="52" stroke="white" fill="white" />
<text x="22.0" y="10.0" fill="black" text-anchor="middle" dominant-baseline="middle">15</text>
<text x="62.0" y="10.0" fill="black" text-anchor="middle" dominant-baseline="middle">14</text>
<text x="102.0" y="10.0" fill="black" text-anchor="middle" dominant-baseline="middle">13</text>
<text x="142.0" y="10.0" fill="black" text-anchor="middle" dominant-baseline="middle">12</text>
<text x="182.0" y="10.0" fill="black" text-anchor="middle" dominant-baseline="middle">11</text>
<text x="222.0" y="10.0" fill="black" text-anchor="middle" dominant-baseline="middle">10</text>
<text x="262.0" y="10.0" fill="black" text-anchor="middle" dominant-baseline="middle">9</text>
<text x="302.0" y="10.0" fill="black" text-anchor="middle" dominant-baseline="middle">8</text>
<text x="342.0" y="10.0" fill="black" text-anchor="middle" dominant-baseline="middle">7</text>
<text x="382.0" y="10.0" fill="black" text-anchor="middle" dominant-baseline="middle">6</text>
<text x="422.0" y="10.0" fill="black" text-anchor="middle" dominant-baseline="middle">5</text>
<text x="462.0" y="10.0" fill="black" text-anchor="middle" dominant-baseline="middle">4</text>
<text x="502.0" y="10.0" fill="black" text-anchor="middle" dominant-baseline="middle">3</text>
<text x="542.0" y="10.0" fill="black" text-anchor="middle" dominant-baseline="middle">2</text>
<text x="582.0" y="10.0" fill="black" text-anchor="middle" dominant-baseline="middle">1</text>
<text x="622.0" y="10.0" fill="black" text-anchor="middle" dominant-baseline="middle">0</text>
<rect x="2" y="20" width="40" height="30" stroke="black" fill="#e3f4d7" />
<rect x="2" y="20" width="40" height="30" stroke="black" fill="none" />
<text x="22.0" y="35.0" fill="black" text-anchor="middle" dominant-baseline="middle">0</text>
<rect x="42" y="20" width="40" height="30" stroke="black" fill="#fff6d5" />
<rect x="82" y="20" width="40" height="30" stroke="black" fill="#fff6d5" />
<rect x="122" y="20" width="40" height="30" stroke="black" fill="#fff6d5" />
<rect x="162" y="20" width="40" height="30" stroke="black" fill="#fff6d5" />
<rect x="202" y="20" width="40" height="30" stroke="black" fill="#fff6d5" />
<rect x="45" y="23" width="194" height="24" stroke="none" fill="#fff6d5" />
<rect x="42" y="20" width="200" height="30" stroke="black" fill="none" />
<text x="142.0" y="35.0" fill="black" text-anchor="middle" dominant-baseline="middle">5</text>
<rect x="242" y="20" width="40" height="30" stroke="black" fill="white" />
<rect x="242" y="20" width="40" height="30" stroke="black" fill="none" />
<text x="262.0" y="35.0" fill="black" text-anchor="middle" dominant-baseline="middle">1</text>
<rect x="282" y="20" width="40" height="30" stroke="black" fill="#d5e5ff" />
<rect x="322" y="20" width="40" height="30" stroke="black" fill="#d5e5ff" />
<rect x="362" y="20" width="40" height="30" stroke="black" fill="#d5e5ff" />
<rect x="402" y="20" width="40" height="30" stroke="black" fill="#d5e5ff" />
<rect x="442" y="20" width="40" height="30" stroke="black" fill="#d5e5ff" />
<rect x="482" y="20" width="40" height="30" stroke="black" fill="#d5e5ff" />
<rect x="522" y="20" width="40" height="30" stroke="black" fill="#d5e5ff" />
<rect x="562" y="20" width="40" height="30" stroke="black" fill="#d5e5ff" />
<rect x="602" y="20" width="40" height="30" stroke="black" fill="#d5e5ff" />
<rect x="285" y="23" width="354" height="24" stroke="none" fill="#d5e5ff" />
<rect x="282" y="20" width="360" height="30" stroke="black" fill="none" />
<text x="462.0" y="35.0" fill="black" text-anchor="middle" dominant-baseline="middle">SIMM</text></svg>