<svg version="1.1" width="646" height="51" xmlns="http://www.w3.org/2000/svg"><rect x="0" y="0" width="646" height="51" stroke="white" fill="white" />
<text x="25.0" y="10.0" fill="black" text-anchor="middle" dominant-baseline="middle">15</text>
<text x="65.0" y="10.0" fill="black" text-anchor="middle" dominant-baseline="middle">14</text>
<text x="105.0" y="10.0" fill="black" text-anchor="middle" dominant-baseline="middle">13</text>
<text x="145.0" y="10.0" fill="black" text-anchor="middle" dominant-baseline="middle">12</text>
<text x="185.0" y="10.0" fill="black" text-anchor="middle" dominant-baseline="middle">11</text>
<text x="225.0" y="10.0" fill="black" text-anchor="middle" dominant-baseline="middle">10</text>
<text x="265.0" y="10.0" fill="black" text-anchor="middle" dominant-baseline="middle">9</text>
<text x="305.0" y="10.0" fill="black" text-anchor="middle" dominant-baseline="middle">8</text>
<text x="345.0" y="10.0" fill="black" text-anchor="middle" dominant-baseline="middle">7</text>
<text x="385.0" y="10.0" fill="black" text-anchor="middle" dominant-baseline="middle">6</text>
<text x="425.0" y="10.0" fill="black" text-anchor="middle" dominant-baseline="middle">5</text>
<text x="465.0" y="10.0" fill="black" text-anchor="middle" dominant-baseline="middle">4</text>
<text x="505.0" y="10.0" fill="black" text-anchor="middle" dominant-baseline="middle">3</text>
<text x="545.0" y="10.0" fill="black" text-anchor="middle" dominant-baseline="middle">2</text>
<text x="585.0" y="10.0" fill="black" text-anchor="middle" dominant-baseline="middle">1</text>
<text x="625.0" y="10.0" fill="black" text-anchor="middle" dominant-baseline="middle">0</text>
<rect x="5" y="20" width="40" height="30" stroke="black" fill="#e3f4d7" />
<rect x="5" y="20" width="40" height="30" stroke="black" fill="none" />
<text x="25.0" y="35.0" fill="black" text-anchor="middle" dominant-baseline="middle">F</text>
<rect x="45" y="20" width="40" height="30" stroke="black" fill="#fff6d5" />
<rect x="85" y="20" width="40" height="30" stroke="black" fill="#fff6d5" />
<rect x="48" y="23" width="74" height="24" stroke="none" fill="#fff6d5" />
<rect x="45" y="20" width="80" height="30" stroke="black" fill="none" />
<text x="85.0" y="35.0" fill="black" text-anchor="middle" dominant-baseline="middle">OP1</text>
<rect x="125" y="20" width="40" height="30" stroke="black" fill="#d5e5ff" />
<rect x="165" y="20" width="40" height="30" stroke="black" fill="#d5e5ff" />
<rect x="205" y="20" width="40" height="30" stroke="black" fill="#d5e5ff" />
<rect x="245" y="20" width="40" height="30" stroke="black" fill="#d5e5ff" />
<rect x="285" y="20" width="40" height="30" stroke="black" fill="#d5e5ff" />
<rect x="325" y="20" width="40" height="30" stroke="black" fill="#d5e5ff" />
<rect x="365" y="20" width="40" height="30" stroke="black" fill="#d5e5ff" />
<rect x="405" y="20" width="40" height="30" stroke="black" fill="#d5e5ff" />
<rect x="445" y="20" width="40" height="30" stroke="black" fill="#d5e5ff" />
<rect x="485" y="20" width="40" height="30" stroke="black" fill="#d5e5ff" />
<rect x="525" y="20" width="40" height="30" stroke="black" fill="#d5e5ff" />
<rect x="565" y="20" width="40" height="30" stroke="black" fill="#d5e5ff" />
<rect x="605" y="20" width="40" height="30" stroke="black" fill="#d5e5ff" />
<rect x="128" y="23" width="514" height="24" stroke="none" fill="#d5e5ff" />
<rect x="125" y="20" width="520" height="30" stroke="black" fill="none" />
<text x="385.0" y="35.0" fill="black" text-anchor="middle" dominant-baseline="middle">IMM</text></svg>