<svg version="1.1" width="644" height="51" xmlns="http://www.w3.org/2000/svg"><rect x="0" y="0" width="644" height="51" stroke="white" fill="white" />
<text x="23.0" y="10.0" fill="black" text-anchor="middle" dominant-baseline="middle">15</text>
<text x="63.0" y="10.0" fill="black" text-anchor="middle" dominant-baseline="middle">14</text>
<text x="103.0" y="10.0" fill="black" text-anchor="middle" dominant-baseline="middle">13</text>
<text x="143.0" y="10.0" fill="black" text-anchor="middle" dominant-baseline="middle">12</text>
<text x="183.0" y="10.0" fill="black" text-anchor="middle" dominant-baseline="middle">11</text>
<text x="223.0" y="10.0" fill="black" text-anchor="middle" dominant-baseline="middle">10</text>
<text x="263.0" y="10.0" fill="black" text-anchor="middle" dominant-baseline="middle">9</text>
<text x="303.0" y="10.0" fill="black" text-anchor="middle" dominant-baseline="middle">8</text>
<text x="343.0" y="10.0" fill="black" text-anchor="middle" dominant-baseline="middle">7</text>
<text x="383.0" y="10.0" fill="black" text-anchor="middle" dominant-baseline="middle">6</text>
<text x="423.0" y="10.0" fill="black" text-anchor="middle" dominant-baseline="middle">5</text>
<text x="463.0" y="10.0" fill="black" text-anchor="middle" dominant-baseline="middle">4</text>
<text x="503.0" y="10.0" fill="black" text-anchor="middle" dominant-baseline="middle">3</text>
<text x="543.0" y="10.0" fill="black" text-anchor="middle" dominant-baseline="middle">2</text>
<text x="583.0" y="10.0" fill="black" text-anchor="middle" dominant-baseline="middle">1</text>
<text x="623.0" y="10.0" fill="black" text-anchor="middle" dominant-baseline="middle">0</text>
<rect x="3" y="20" width="40" height="30" stroke="black" fill="#e3f4d7" />
<rect x="3" y="20" width="40" height="30" stroke="black" fill="none" />
<text x="23.0" y="35.0" fill="black" text-anchor="middle" dominant-baseline="middle">F</text>
<rect x="43" y="20" width="40" height="30" stroke="black" fill="#fff6d5" />
<rect x="83" y="20" width="40" height="30" stroke="black" fill="#fff6d5" />
<rect x="46" y="23" width="74" height="24" stroke="none" fill="#fff6d5" />
<rect x="43" y="20" width="80" height="30" stroke="black" fill="none" />
<text x="83.0" y="35.0" fill="black" text-anchor="middle" dominant-baseline="middle">OP1</text>
<rect x="123" y="20" width="40" height="30" stroke="black" fill="#d5e5ff" />
<rect x="163" y="20" width="40" height="30" stroke="black" fill="#d5e5ff" />
<rect x="203" y="20" width="40" height="30" stroke="black" fill="#d5e5ff" />
<rect x="243" y="20" width="40" height="30" stroke="black" fill="#d5e5ff" />
<rect x="283" y="20" width="40" height="30" stroke="black" fill="#d5e5ff" />
<rect x="323" y="20" width="40" height="30" stroke="black" fill="#d5e5ff" />
<rect x="363" y="20" width="40" height="30" stroke="black" fill="#d5e5ff" />
<rect x="403" y="20" width="40" height="30" stroke="black" fill="#d5e5ff" />
<rect x="443" y="20" width="40" height="30" stroke="black" fill="#d5e5ff" />
<rect x="483" y="20" width="40" height="30" stroke="black" fill="#d5e5ff" />
<rect x="523" y="20" width="40" height="30" stroke="black" fill="#d5e5ff" />
<rect x="563" y="20" width="40" height="30" stroke="black" fill="#d5e5ff" />
<rect x="603" y="20" width="40" height="30" stroke="black" fill="#d5e5ff" />
<rect x="126" y="23" width="514" height="24" stroke="none" fill="#d5e5ff" />
<rect x="123" y="20" width="520" height="30" stroke="black" fill="none" />
<text x="383.0" y="35.0" fill="black" text-anchor="middle" dominant-baseline="middle">IMM</text></svg>