<svg xmlns="http://www.w3.org/2000/svg" width="800" height="112" viewBox="0 0 800 112" class="WaveDrom"><g transform="translate(0.5,0.5)" text-anchor="middle" font-size="14" font-family="sans-serif" font-weight="normal"><g transform="translate(4,21)"><g stroke="black" stroke-width="1" stroke-linecap="round"><line x2="791"/><line x2="791" y1="31" y2="31"/><line y2="31"/><line x1="791" x2="791" y2="31"/><line x1="742" x2="742" y2="3"/><line x1="742" x2="742" y1="31" y2="28"/><line x1="692" x2="692" y2="3"/><line x1="692" x2="692" y1="31" y2="28"/><line x1="643" x2="643" y2="3"/><line x1="643" x2="643" y1="31" y2="28"/><line x1="593" x2="593" y2="3"/><line x1="593" x2="593" y1="31" y2="28"/><line x1="544" x2="544" y2="3"/><line x1="544" x2="544" y1="31" y2="28"/><line x1="494" x2="494" y2="3"/><line x1="494" x2="494" y1="31" y2="28"/><line x1="445" x2="445" y2="3"/><line x1="445" x2="445" y1="31" y2="28"/><line x1="396" x2="396" y2="3"/><line x1="396" x2="396" y1="31" y2="28"/><line x1="346" x2="346" y2="3"/><line x1="346" x2="346" y1="31" y2="28"/><line x1="297" x2="297" y2="3"/><line x1="297" x2="297" y1="31" y2="28"/><line x1="247" x2="247" y2="3"/><line x1="247" x2="247" y1="31" y2="28"/><line x1="198" x2="198" y2="3"/><line x1="198" x2="198" y1="31" y2="28"/><line x1="148" x2="148" y2="31"/><line x1="99" x2="99" y2="3"/><line x1="99" x2="99" y1="31" y2="28"/><line x1="49" x2="49" y2="31"/><line y2="31"/></g><g><g><rect x="49" width="99" height="31" style="fill-opacity:0.1"/></g><g transform="translate(25,-11)"><g transform="translate(742)"><text y="6">0</text></g><g transform="translate(148)"><text y="6">12</text></g><g transform="translate(99)"><text y="6">13</text></g><g transform="translate(49)"><text y="6">14</text></g><g transform="translate(0)"><text y="6">15</text></g></g><g transform="translate(25,15)"><g transform="translate(445)"><text y="6"><tspan>IMM</tspan></text></g><g transform="translate(74)"><text y="6"><tspan>OP1</tspan></text></g><g transform="translate(0)"><text y="6"><tspan>F</tspan></text></g></g><g transform="translate(25,39)"><g><g transform="translate(74)"><text y="6"><tspan>JMP = 0</tspan></text></g><g transform="translate(74,14)"><text y="6"><tspan>JZ = 1</tspan></text></g><g transform="translate(74,28)"><text y="6"><tspan>CALL = 2</tspan></text></g><g transform="translate(74,42)"><text y="6"><tspan>PUSHU = 3</tspan></text></g></g></g></g></g></g></svg>
